<?xml version="1.0" encoding="utf-8"?>
<!-- Generator: Adobe Illustrator 19.0.0, SVG Export Plug-In . SVG Version: 6.00 Build 0)  -->
<svg version="1.1" xmlns="http://www.w3.org/2000/svg" xmlns:xlink="http://www.w3.org/1999/xlink" x="0px" y="0px"
	 viewBox="0 0 400 175.5" style="enable-background:new 0 0 400 175.5;" xml:space="preserve">
<style type="text/css">
	.st0{fill:#C1E0EB;}
	.st1{fill:#8FCCE3;}
	.st2{fill:none;}
	.st3{font-family:'HelveticaNeue-Italic';}
	.st4{font-size:16px;}
	.st5{fill:#FDECB8;}
	.st6{fill:#F4B665;}
</style>
<g id="Layer_1">
	<rect id="XMLID_1_" x="0" y="88.7" class="st0" width="182.6" height="35.2"/>
	<rect id="XMLID_17_" x="0" y="126.6" class="st1" width="182.6" height="35.2"/>
</g>
<g id="Layer_2">
	<rect id="XMLID_232_" x="0" y="137.3" class="st2" width="182.6" height="13.7"/>
	<text id="XMLID_231_" transform="matrix(1 0 0 1 41.4921 148.7694)" class="st3 st4">Rails backend</text>
	<rect id="XMLID_230_" x="0" y="99.4" class="st2" width="182.6" height="13.7"/>
	<text id="XMLID_229_" transform="matrix(1 0 0 1 23.7084 110.8636)" class="st3 st4">Angular.js frontend</text>
	<rect id="XMLID_228_" x="0" y="50.8" class="st5" width="182.6" height="35.2"/>
	<rect id="XMLID_227_" x="0" y="61.6" class="st2" width="182.6" height="13.7"/>
	<text id="XMLID_226_" transform="matrix(1 0 0 1 50.6918 73.0187)" class="st3 st4">HTML/CSS</text>
	<rect id="XMLID_225_" x="0" y="13" class="st6" width="182.6" height="35.2"/>
	<rect id="XMLID_224_" x="0" y="23.7" class="st2" width="182.6" height="13.7"/>
	<text id="XMLID_223_" transform="matrix(1 0 0 1 35.3481 35.1585)" class="st3 st4">Graphic design</text>
</g>
<g id="annotation">
	<g id="XMLID_28_">
		<g id="XMLID_171_">
			<path id="XMLID_175_" d="M243,102.8c0,8.2,0,16.5,0,24.7c0,1.4,2.2,1.5,2.2,0c0-8.2,0-16.5,0-24.7
				C245.3,101.4,243,101.3,243,102.8L243,102.8z"/>
		</g>
	</g>
	<g id="XMLID_29_">
		<g id="XMLID_123_">
			<path id="XMLID_169_" d="M255.9,114.3c0.1,4.1,0.7,8.2,0.9,12.3c0.1,1.4,2.3,1.5,2.2,0c0-3-0.8-10.1,2.4-11.7
				c5.2-2.7,4.4,10.2,4.4,12.6c0.7-0.1,1.5-0.2,2.2-0.3c-0.4-2-0.8-4.1-0.5-6.1c0.3-2.4,2.5-6.6,5.4-4.5c2.4,1.6,1.3,6.9,1.3,9.4
				c0,1.4,2.2,1.4,2.2,0c0.1-3.9,1.2-12.1-4.7-12.1c-7.2,0-6.9,9-5.9,13.9c0.3,1.3,2.2,1,2.2-0.3c0-4.3,1.2-15.9-6.1-15.2
				c-5.8,0.6-5.2,10.2-5.2,14.3c0.8,0,1.5,0,2.2,0c-0.2-4.1-0.8-8.2-0.9-12.3C258.1,112.8,255.9,112.8,255.9,114.3L255.9,114.3z"/>
		</g>
	</g>
	<g id="XMLID_30_">
		<g id="XMLID_117_">
			<path id="XMLID_121_" d="M284,125.4c-3.8-0.8-4.4-6.9-1.6-9.2c2.5-2.1,4.9,0.4,5.6,2.9c1.1,3.5-0.3,6.7-4.3,6.3
				c-1.4-0.1-1.4,2.1,0,2.2c10.5,1,7.8-16.5-0.6-14.2c-6.4,1.7-6.1,12.8,0.3,14.2C284.9,127.9,285.5,125.7,284,125.4L284,125.4z"/>
		</g>
	</g>
	<g id="XMLID_31_">
		<g id="XMLID_111_">
			<path id="XMLID_115_" d="M288,113.1c0,2.5-0.1,4.9,0.3,7.4c0.3,2.2,1.2,4.2,1.5,6.4c0.2,1.4,2.4,1.4,2.2,0c-0.2-2-1-3.8-1.4-5.7
				c-0.6-2.7-0.4-5.4-0.4-8.1C290.3,111.7,288,111.7,288,113.1L288,113.1z"/>
		</g>
	</g>
	<g id="XMLID_32_">
		<g id="XMLID_105_">
			<path id="XMLID_109_" d="M303.6,99.1c0,7.2-0.8,14.8,0.3,22c0.4,2.5,1.8,4.8-1.6,5.1c-2.2,0.2-3.9-1.5-4.9-3.3
				c-0.6-0.9-0.9-1.9-0.9-3c0.5-3.8,2.5-4.7,5.9-2.5c0.8,1.2,2.7,0.1,1.9-1.1c-2-3.2-6.7-3.3-9-0.2c-2.5,3.5-0.4,9.4,3.1,11.5
				c2.6,1.6,7.8,2,8.4-1.8c0.6-3.3-1-7.6-1.1-11c-0.1-5.2,0.1-10.4,0.1-15.6C305.9,97.6,303.6,97.6,303.6,99.1L303.6,99.1z"/>
		</g>
	</g>
	<g id="XMLID_34_">
		<g id="XMLID_99_">
			<path id="XMLID_103_" d="M310.8,123c3.6,0,8.4-0.8,9-5.1c0.6-4-4.4-4.2-7-3.1c-3.9,1.7-3.7,7.1-1.6,10.2
				c1.9,2.9,7.8,4.5,10.4,1.7c1-1.1-0.6-2.7-1.6-1.6c-1.7,1.9-6,0.3-7.1-1.6c-1.1-1.9-1.6-5.5,0.7-6.6c1.4-0.7,5.2-1,3.7,1.6
				c-1.2,2.1-4.4,2.2-6.5,2.2C309.4,120.8,309.4,123,310.8,123L310.8,123z"/>
		</g>
	</g>
	<g id="XMLID_36_">
		<g id="XMLID_93_">
			<path id="XMLID_97_" d="M335.1,99.3c0,4.9,0.1,9.8,0,14.8c-0.1,3.3-0.6,7,0.8,10.1c2.5,5.5,7.6,4.5,9.9-0.3
				c0.6-1.3-1.3-2.4-1.9-1.1c-0.7,2.4-2.6,2.7-5.7,0.9c-0.7-1.5-1-3.1-0.9-4.7c-0.1-1.8,0.1-3.7,0.2-5.5c0.1-4.7,0-9.4,0-14.1
				C337.3,97.9,335.1,97.8,335.1,99.3L335.1,99.3z"/>
		</g>
	</g>
	<g id="XMLID_43_">
		<g id="XMLID_87_">
			<path id="XMLID_91_" d="M330.1,115.1c3.6,0,7.2-0.5,10.6-1.7c1.4-0.5,0.8-2.7-0.6-2.2c-3.2,1.1-6.6,1.6-10,1.6
				C328.6,112.9,328.6,115.1,330.1,115.1L330.1,115.1z"/>
		</g>
	</g>
	<g id="XMLID_50_">
		<g id="XMLID_77_">
			<path id="XMLID_85_" d="M346.8,98.5c0,4.7,0,9.5,0.3,14.2c0.3,4.8,1.4,9.5,1.5,14.3c0.8,0,1.5,0,2.2,0c-0.2-2.5-1-8.5,0.8-10.5
				c3.2-3.6,3.8,3.8,3.8,5.4c0,1.8-0.1,3.6-0.1,5.4c0,1.4,2.2,1.5,2.2,0c0-3.4,1.4-15.2-4.9-14.5c-5.4,0.6-4.5,10.7-4.2,14.3
				c0.1,1.4,2.3,1.5,2.2,0c-0.1-4.8-1.2-9.5-1.5-14.3c-0.3-4.7-0.3-9.5-0.3-14.2C349.1,97.1,346.8,97.1,346.8,98.5L346.8,98.5z"/>
		</g>
	</g>
	<g id="XMLID_57_">
		<g id="XMLID_70_">
			<path id="XMLID_75_" d="M361.3,113.7c0,4.7-0.2,9.3-0.2,14c0,1.4,2.2,1.4,2.2,0c0-4.7,0.2-9.3,0.2-14
				C363.6,112.2,361.3,112.2,361.3,113.7L361.3,113.7z"/>
		</g>
	</g>
	<g id="XMLID_64_">
		<g id="XMLID_63_">
			<path id="XMLID_68_" d="M363.3,107.8c0-0.2,0-0.3,0-0.5c0-1.4-2.2-1.5-2.2,0c0,0.2,0,0.3,0,0.5
				C361.1,109.3,363.3,109.3,363.3,107.8L363.3,107.8z"/>
		</g>
	</g>
	<g id="XMLID_71_">
		<g id="XMLID_56_">
			<path id="XMLID_61_" d="M375.2,113.8c-2.4,0.1-5.2-1.2-7.3,0.3c-1.7,1.2-2.1,3.8-0.8,5.4c1.4,1.8,3.8,2.2,5.9,2.8
				c1.4,0.4,4.8,2.4,2,3.5c-1.1,0.4-3.5,0.9-4.5,0.1c-1.1-0.9-2.7,0.7-1.6,1.6c3.1,2.6,12.4,0,8.7-4.8c-1.8-2.3-4.7-2.4-7.2-3.5
				c-0.8-0.4-1.8-0.9-1.9-1.9c-0.1-1.3,1.1-1.7,2.1-1.8c1.5,0,3,0.5,4.6,0.4C376.6,116,376.6,113.7,375.2,113.8L375.2,113.8z"/>
		</g>
	</g>
	<g id="XMLID_27_">
		<g id="XMLID_47_">
			<path id="XMLID_53_" d="M208.4,123.4c6.6-0.1,13.1-1.2,19.6-1.2c1.4,0,1.5-2.3,0-2.2c-6.6,0.1-13.1,1.2-19.6,1.2
				C207,121.2,207,123.4,208.4,123.4L208.4,123.4z"/>
		</g>
	</g>
	<g id="XMLID_2_">
		<g id="XMLID_54_">
			<path id="XMLID_170_" d="M195,88.9c2.2,0,4.4-0.2,6.6-0.2c1.8,0,4.4,0.7,6.1,0.2c1.5-0.4,0.2,0.8,0.1-0.7c0,0.5,0,1.4-0.1,1.8
				c-0.5,2.2,0,5.2,0,7.5c0,11.1,0,22.3,0,33.4c0,8.3-0.4,16.7,0.1,25c0.1,1.3,0.3,2.6,0.2,3.9c-0.1,2.2-0.3,2.3-2.4,2.4
				c-3.5,0.2-7.1,0.4-10.6,0.4c-1.4,0-1.5,2.3,0,2.2c3.5,0,7.1-0.1,10.6-0.4c1.7-0.1,3.3,0.1,4.2-1.4c1-1.6,0.4-5,0.2-6.8
				c-0.2-3.2-0.2-6.3-0.2-9.5c0-11.1,0-22.2,0-33.2c0-5.7,0-11.4,0-17.1c0-2.4,1.1-7.3-0.1-9.5c-0.2-0.3-0.6-0.6-1-0.6
				c-4.6,0.2-9.3-0.1-13.9,0C193.6,86.7,193.6,88.9,195,88.9L195,88.9z"/>
		</g>
	</g>
</g>
</svg>
