<?xml version="1.0" encoding="utf-8"?>
<!-- Generator: Adobe Illustrator 19.0.0, SVG Export Plug-In . SVG Version: 6.00 Build 0)  -->
<svg version="1.1" id="Layer_1" xmlns="http://www.w3.org/2000/svg" xmlns:xlink="http://www.w3.org/1999/xlink" x="0px" y="0px"
	 viewBox="50 -16.1 400 175.6" style="enable-background:new 50 -16.1 400 175.6;" xml:space="preserve">
<style type="text/css">
	.st0{fill:#C1E0EB;}
	.st1{fill:#8FCCE3;}
	.st2{fill:none;}
	.st3{font-family:'HelveticaNeue-Italic';}
	.st4{font-size:16px;}
	.st5{fill:#FDECB8;}
	.st6{fill:#F4B665;}
</style>
<g id="Layer_1_1_">
	<rect id="XMLID_1_" x="50" y="72.6" class="st0" width="182.6" height="35.2"/>
	<rect id="XMLID_17_" x="50" y="110.5" class="st1" width="182.6" height="35.2"/>
</g>
<g id="Layer_2">
	<rect id="XMLID_232_" x="50" y="121.2" class="st2" width="182.6" height="13.7"/>
	<text id="XMLID_231_" transform="matrix(1 0 0 1 91.4921 132.6741)" class="st3 st4">Rails backend</text>
	<rect id="XMLID_230_" x="50" y="83.3" class="st2" width="182.6" height="13.7"/>
	<text id="XMLID_229_" transform="matrix(1 0 0 1 73.7084 94.7683)" class="st3 st4">Angular.js frontend</text>
	<rect id="XMLID_228_" x="50" y="34.7" class="st5" width="182.6" height="35.2"/>
	<rect id="XMLID_227_" x="50" y="45.5" class="st2" width="182.6" height="13.7"/>
	<text id="XMLID_226_" transform="matrix(1 0 0 1 100.6918 56.9236)" class="st3 st4">HTML/CSS</text>
	<rect id="XMLID_225_" x="50" y="-3.1" class="st6" width="182.6" height="35.2"/>
	<rect id="XMLID_224_" x="50" y="7.6" class="st2" width="182.6" height="13.7"/>
	<text id="XMLID_223_" transform="matrix(1 0 0 1 85.3481 19.0634)" class="st3 st4">Graphic design</text>
</g>
<g id="annotation">
	<g id="XMLID_28_">
		<g id="XMLID_119_">
			<path id="XMLID_123_" d="M294.9,47.9c0,8.2,0,16.5,0,24.7c0,1.4,2.2,1.5,2.2,0c0-8.2,0-16.5,0-24.7
				C297.2,46.5,294.9,46.5,294.9,47.9L294.9,47.9z"/>
		</g>
	</g>
	<g id="XMLID_29_">
		<g id="XMLID_113_">
			<path id="XMLID_117_" d="M307.8,59.4c0.1,4.1,0.7,8.2,0.9,12.3c0.1,1.4,2.3,1.5,2.2,0c0-3-0.8-10.1,2.4-11.7
				c5.2-2.7,4.4,10.2,4.4,12.6c0.7-0.1,1.5-0.2,2.2-0.3c-0.4-2-0.8-4.1-0.5-6.1c0.3-2.4,2.5-6.6,5.4-4.5c2.4,1.6,1.3,6.9,1.3,9.4
				c0,1.4,2.2,1.4,2.2,0c0.1-3.9,1.2-12.1-4.7-12.1c-7.2,0-6.9,9-5.9,13.9c0.3,1.3,2.2,1,2.2-0.3c0-4.3,1.2-15.9-6.1-15.2
				c-5.8,0.6-5.2,10.2-5.2,14.3c0.8,0,1.5,0,2.2,0c-0.2-4.1-0.8-8.2-0.9-12.3C310,57.9,307.8,57.9,307.8,59.4L307.8,59.4z"/>
		</g>
	</g>
	<g id="XMLID_30_">
		<g id="XMLID_107_">
			<path id="XMLID_111_" d="M335.9,70.5c-3.8-0.8-4.4-6.9-1.6-9.2c2.5-2.1,4.9,0.4,5.6,2.9c1.1,3.5-0.3,6.7-4.3,6.3
				c-1.4-0.1-1.4,2.1,0,2.2c10.5,1,7.8-16.5-0.6-14.2c-6.4,1.7-6.1,12.8,0.3,14.2C336.8,73,337.4,70.8,335.9,70.5L335.9,70.5z"/>
		</g>
	</g>
	<g id="XMLID_31_">
		<g id="XMLID_101_">
			<path id="XMLID_105_" d="M339.9,58.2c0,2.5-0.1,4.9,0.3,7.4c0.3,2.2,1.2,4.2,1.5,6.4c0.2,1.4,2.4,1.4,2.2,0c-0.2-2-1-3.8-1.4-5.7
				c-0.6-2.7-0.4-5.4-0.4-8.1C342.2,56.8,339.9,56.8,339.9,58.2L339.9,58.2z"/>
		</g>
	</g>
	<g id="XMLID_32_">
		<g id="XMLID_95_">
			<path id="XMLID_99_" d="M355.5,44.2c0,7.2-0.8,14.8,0.3,22c0.4,2.5,1.8,4.8-1.6,5.1c-2.2,0.2-3.9-1.5-4.9-3.3
				c-0.6-0.9-0.9-1.9-0.9-3c0.5-3.8,2.5-4.7,5.9-2.5c0.8,1.2,2.7,0.1,1.9-1.1c-2-3.2-6.7-3.3-9-0.2c-2.5,3.5-0.4,9.4,3.1,11.5
				c2.6,1.6,7.8,2,8.4-1.8c0.6-3.3-1-7.6-1.1-11c-0.1-5.2,0.1-10.4,0.1-15.6C357.8,42.7,355.5,42.7,355.5,44.2L355.5,44.2z"/>
		</g>
	</g>
	<g id="XMLID_34_">
		<g id="XMLID_89_">
			<path id="XMLID_93_" d="M362.7,68.1c3.6,0,8.4-0.8,9-5.1c0.6-4-4.4-4.2-7-3.1c-3.9,1.7-3.7,7.1-1.6,10.2
				c1.9,2.9,7.8,4.5,10.4,1.7c1-1.1-0.6-2.7-1.6-1.6c-1.7,1.9-6,0.3-7.1-1.6s-1.6-5.5,0.7-6.6c1.4-0.7,5.2-1,3.7,1.6
				c-1.2,2.1-4.4,2.2-6.5,2.2C361.3,65.9,361.3,68.1,362.7,68.1L362.7,68.1z"/>
		</g>
	</g>
	<g id="XMLID_36_">
		<g id="XMLID_83_">
			<path id="XMLID_87_" d="M387,44.4c0,4.9,0.1,9.8,0,14.8c-0.1,3.3-0.6,7,0.8,10.1c2.5,5.5,7.6,4.5,9.9-0.3
				c0.6-1.3-1.3-2.4-1.9-1.1c-0.7,2.4-2.6,2.7-5.7,0.9c-0.7-1.5-1-3.1-0.9-4.7c-0.1-1.8,0.1-3.7,0.2-5.5c0.1-4.7,0-9.4,0-14.1
				C389.2,43,387,43,387,44.4L387,44.4z"/>
		</g>
	</g>
	<g id="XMLID_43_">
		<g id="XMLID_81_">
			<path id="XMLID_118_" d="M382,60.2c3.6,0,7.2-0.5,10.6-1.7c1.4-0.5,0.8-2.7-0.6-2.2c-3.2,1.1-6.6,1.6-10,1.6
				C380.5,58,380.5,60.2,382,60.2L382,60.2z"/>
		</g>
	</g>
	<g id="XMLID_50_">
		<g id="XMLID_70_">
			<path id="XMLID_75_" d="M398.7,43.6c0,4.7,0,9.5,0.3,14.2c0.3,4.8,1.4,9.5,1.5,14.3c0.8,0,1.5,0,2.2,0c-0.2-2.5-1-8.5,0.8-10.5
				c3.2-3.6,3.8,3.8,3.8,5.4c0,1.8-0.1,3.6-0.1,5.4c0,1.4,2.2,1.5,2.2,0c0-3.4,1.4-15.2-4.9-14.5c-5.4,0.6-4.5,10.7-4.2,14.3
				c0.1,1.4,2.3,1.5,2.2,0c-0.1-4.8-1.2-9.5-1.5-14.3c-0.3-4.7-0.3-9.5-0.3-14.2C401,42.2,398.7,42.2,398.7,43.6L398.7,43.6z"/>
		</g>
	</g>
	<g id="XMLID_57_">
		<g id="XMLID_63_">
			<path id="XMLID_68_" d="M413.2,58.8c0,4.7-0.2,9.3-0.2,14c0,1.4,2.2,1.4,2.2,0c0-4.7,0.2-9.3,0.2-14
				C415.5,57.3,413.2,57.3,413.2,58.8L413.2,58.8z"/>
		</g>
	</g>
	<g id="XMLID_64_">
		<g id="XMLID_56_">
			<path id="XMLID_61_" d="M415.2,52.9c0-0.2,0-0.3,0-0.5c0-1.4-2.2-1.5-2.2,0c0,0.2,0,0.3,0,0.5C413,54.4,415.2,54.4,415.2,52.9
				L415.2,52.9z"/>
		</g>
	</g>
	<g id="XMLID_71_">
		<g id="XMLID_49_">
			<path id="XMLID_54_" d="M427.1,58.9c-2.4,0.1-5.2-1.2-7.3,0.3c-1.7,1.2-2.1,3.8-0.8,5.4c1.4,1.8,3.8,2.2,5.9,2.8
				c1.4,0.4,4.8,2.4,2,3.5c-1.1,0.4-3.5,0.9-4.5,0.1c-1.1-0.9-2.7,0.7-1.6,1.6c3.1,2.6,12.4,0,8.7-4.8c-1.8-2.3-4.7-2.4-7.2-3.5
				c-0.8-0.4-1.8-0.9-1.9-1.9c-0.1-1.3,1.1-1.7,2.1-1.8c1.5,0,3,0.5,4.6,0.4C428.5,61.1,428.5,58.8,427.1,58.9L427.1,58.9z"/>
		</g>
	</g>
	<g id="XMLID_2_">
		<g id="XMLID_42_">
			<path id="XMLID_47_" d="M244.4-4c4.2,0.1,8.2-0.9,12.4-0.9c3.2,0,3,0.7,3.2,3.8c0.1,1.4,0.1,2.8,0.1,4.2
				c-0.1,6.7-0.7,13.3-0.8,19.9c-0.3,17.1-0.8,34.2-0.6,51.3c0.3,23.8-0.1,47.5,0.6,71.3c0.4-0.4,0.8-0.8,1.1-1.1
				c-5.9,0.7-11.8,1.2-17.7,0.9c-1.4-0.1-1.4,2.2,0,2.2c5.9,0.3,11.9-0.2,17.7-0.9c0.6-0.1,1.1-0.5,1.1-1.1
				c-0.7-21.9-0.3-43.7-0.5-65.5c-0.2-16.6-0.2-33,0.3-49.6c0.2-6.8,0.2-13.6,0.6-20.3c0.4-5.5,0.9-11.2-0.4-16.6
				c-0.1-0.5-0.6-0.8-1.1-0.8c-5.3-0.2-10.6,1-15.9,0.9C243-6.3,243-4.1,244.4-4L244.4-4z"/>
		</g>
	</g>
	<g id="XMLID_27_">
		<g id="XMLID_35_">
			<path id="XMLID_40_" d="M260.3,68.5c8.2-0.1,16.4-1.3,24.6-1.4c1.4,0,1.5-2.3,0-2.2c-8.2,0.1-16.4,1.3-24.6,1.4
				C258.9,66.3,258.9,68.5,260.3,68.5L260.3,68.5z"/>
		</g>
	</g>
</g>
</svg>
