<?xml version="1.0" encoding="utf-8"?>
<!-- Generator: Adobe Illustrator 19.0.0, SVG Export Plug-In . SVG Version: 6.00 Build 0)  -->
<svg version="1.1" id="Layer_1" xmlns="http://www.w3.org/2000/svg" xmlns:xlink="http://www.w3.org/1999/xlink" x="0px" y="0px"
	 viewBox="50 13.5 400 175.5" style="enable-background:new 50 13.5 400 175.5;" xml:space="preserve">
<style type="text/css">
	.st0{fill:#C1E0EB;}
	.st1{fill:#8FCCE3;}
	.st2{fill:none;}
	.st3{font-family:'HelveticaNeue-Italic';}
	.st4{font-size:16px;}
	.st5{fill:#FDECB8;}
	.st6{fill:#F4B665;}
</style>
<g id="Layer_1_1_">
	<rect id="XMLID_1_" x="50" y="102.2" class="st0" width="182.6" height="35.2"/>
	<rect id="XMLID_17_" x="50" y="140.1" class="st1" width="182.6" height="35.2"/>
</g>
<g id="Layer_2">
	<rect id="XMLID_232_" x="50" y="150.8" class="st2" width="182.6" height="13.7"/>
	<text id="XMLID_231_" transform="matrix(1 0 0 1 82.4921 162.2694)" class="st3 st4">Django backend</text>
	<rect id="XMLID_230_" x="50" y="112.9" class="st2" width="182.6" height="13.7"/>
	<text id="XMLID_229_" transform="matrix(1 0 0 1 70.7084 124.3636)" class="st3 st4">JavaScript frontend</text>
	<rect id="XMLID_228_" x="50" y="64.3" class="st5" width="182.6" height="35.2"/>
	<rect id="XMLID_227_" x="50" y="75.1" class="st2" width="182.6" height="13.7"/>
	<text id="XMLID_226_" transform="matrix(1 0 0 1 96.6918 87.5187)" class="st3 st4">HTML/CSS</text>
	<rect id="XMLID_225_" x="50" y="26.5" class="st6" width="182.6" height="35.2"/>
	<rect id="XMLID_224_" x="50" y="37.2" class="st2" width="182.6" height="13.7"/>
	<text id="XMLID_223_" transform="matrix(1 0 0 1 83.3481 48.6585)" class="st3 st4">Graphics design</text>
</g>
<g id="annotation">
	<g id="XMLID_28_">
		<g id="XMLID_171_">
			<path id="XMLID_175_" d="M293,116.3c0,8.2,0,16.5,0,24.7c0,1.4,2.2,1.5,2.2,0c0-8.2,0-16.5,0-24.7
				C295.3,114.9,293,114.8,293,116.3L293,116.3z"/>
		</g>
	</g>
	<g id="XMLID_29_">
		<g id="XMLID_123_">
			<path id="XMLID_169_" d="M305.9,127.8c0.1,4.1,0.7,8.2,0.9,12.3c0.1,1.4,2.3,1.5,2.2,0c0-3-0.8-10.1,2.4-11.7
				c5.2-2.7,4.4,10.2,4.4,12.6c0.7-0.1,1.5-0.2,2.2-0.3c-0.4-2-0.8-4.1-0.5-6.1c0.3-2.4,2.5-6.6,5.4-4.5c2.4,1.6,1.3,6.9,1.3,9.4
				c0,1.4,2.2,1.4,2.2,0c0.1-3.9,1.2-12.1-4.7-12.1c-7.2,0-6.9,9-5.9,13.9c0.3,1.3,2.2,1,2.2-0.3c0-4.3,1.2-15.9-6.1-15.2
				c-5.8,0.6-5.2,10.2-5.2,14.3c0.8,0,1.5,0,2.2,0c-0.2-4.1-0.8-8.2-0.9-12.3C308.1,126.3,305.9,126.3,305.9,127.8L305.9,127.8z"/>
		</g>
	</g>
	<g id="XMLID_30_">
		<g id="XMLID_117_">
			<path id="XMLID_121_" d="M334,138.9c-3.8-0.8-4.4-6.9-1.6-9.2c2.5-2.1,4.9,0.4,5.6,2.9c1.1,3.5-0.3,6.7-4.3,6.3
				c-1.4-0.1-1.4,2.1,0,2.2c10.5,1,7.8-16.5-0.6-14.2c-6.4,1.7-6.1,12.8,0.3,14.2C334.9,141.4,335.5,139.2,334,138.9L334,138.9z"/>
		</g>
	</g>
	<g id="XMLID_31_">
		<g id="XMLID_111_">
			<path id="XMLID_115_" d="M338,126.6c0,2.5-0.1,4.9,0.3,7.4c0.3,2.2,1.2,4.2,1.5,6.4c0.2,1.4,2.4,1.4,2.2,0c-0.2-2-1-3.8-1.4-5.7
				c-0.6-2.7-0.4-5.4-0.4-8.1C340.3,125.2,338,125.2,338,126.6L338,126.6z"/>
		</g>
	</g>
	<g id="XMLID_32_">
		<g id="XMLID_105_">
			<path id="XMLID_109_" d="M353.6,112.6c0,7.2-0.8,14.8,0.3,22c0.4,2.5,1.8,4.8-1.6,5.1c-2.2,0.2-3.9-1.5-4.9-3.3
				c-0.6-0.9-0.9-1.9-0.9-3c0.5-3.8,2.5-4.7,5.9-2.5c0.8,1.2,2.7,0.1,1.9-1.1c-2-3.2-6.7-3.3-9-0.2c-2.5,3.5-0.4,9.4,3.1,11.5
				c2.6,1.6,7.8,2,8.4-1.8c0.6-3.3-1-7.6-1.1-11c-0.1-5.2,0.1-10.4,0.1-15.6C355.9,111.1,353.6,111.1,353.6,112.6L353.6,112.6z"/>
		</g>
	</g>
	<g id="XMLID_34_">
		<g id="XMLID_99_">
			<path id="XMLID_103_" d="M360.8,136.5c3.6,0,8.4-0.8,9-5.1c0.6-4-4.4-4.2-7-3.1c-3.9,1.7-3.7,7.1-1.6,10.2
				c1.9,2.9,7.8,4.5,10.4,1.7c1-1.1-0.6-2.7-1.6-1.6c-1.7,1.9-6,0.3-7.1-1.6s-1.6-5.5,0.7-6.6c1.4-0.7,5.2-1,3.7,1.6
				c-1.2,2.1-4.4,2.2-6.5,2.2C359.4,134.3,359.4,136.5,360.8,136.5L360.8,136.5z"/>
		</g>
	</g>
	<g id="XMLID_36_">
		<g id="XMLID_93_">
			<path id="XMLID_97_" d="M385.1,112.8c0,4.9,0.1,9.8,0,14.8c-0.1,3.3-0.6,7,0.8,10.1c2.5,5.5,7.6,4.5,9.9-0.3
				c0.6-1.3-1.3-2.4-1.9-1.1c-0.7,2.4-2.6,2.7-5.7,0.9c-0.7-1.5-1-3.1-0.9-4.7c-0.1-1.8,0.1-3.7,0.2-5.5c0.1-4.7,0-9.4,0-14.1
				C387.3,111.4,385.1,111.3,385.1,112.8L385.1,112.8z"/>
		</g>
	</g>
	<g id="XMLID_43_">
		<g id="XMLID_87_">
			<path id="XMLID_91_" d="M380.1,128.6c3.6,0,7.2-0.5,10.6-1.7c1.4-0.5,0.8-2.7-0.6-2.2c-3.2,1.1-6.6,1.6-10,1.6
				C378.6,126.4,378.6,128.6,380.1,128.6L380.1,128.6z"/>
		</g>
	</g>
	<g id="XMLID_50_">
		<g id="XMLID_77_">
			<path id="XMLID_85_" d="M396.8,112c0,4.7,0,9.5,0.3,14.2c0.3,4.8,1.4,9.5,1.5,14.3c0.8,0,1.5,0,2.2,0c-0.2-2.5-1-8.5,0.8-10.5
				c3.2-3.6,3.8,3.8,3.8,5.4c0,1.8-0.1,3.6-0.1,5.4c0,1.4,2.2,1.5,2.2,0c0-3.4,1.4-15.2-4.9-14.5c-5.4,0.6-4.5,10.7-4.2,14.3
				c0.1,1.4,2.3,1.5,2.2,0c-0.1-4.8-1.2-9.5-1.5-14.3c-0.3-4.7-0.3-9.5-0.3-14.2C399.1,110.6,396.8,110.6,396.8,112L396.8,112z"/>
		</g>
	</g>
	<g id="XMLID_57_">
		<g id="XMLID_70_">
			<path id="XMLID_75_" d="M411.3,127.2c0,4.7-0.2,9.3-0.2,14c0,1.4,2.2,1.4,2.2,0c0-4.7,0.2-9.3,0.2-14
				C413.6,125.7,411.3,125.7,411.3,127.2L411.3,127.2z"/>
		</g>
	</g>
	<g id="XMLID_64_">
		<g id="XMLID_63_">
			<path id="XMLID_68_" d="M413.3,121.3c0-0.2,0-0.3,0-0.5c0-1.4-2.2-1.5-2.2,0c0,0.2,0,0.3,0,0.5
				C411.1,122.8,413.3,122.8,413.3,121.3L413.3,121.3z"/>
		</g>
	</g>
	<g id="XMLID_71_">
		<g id="XMLID_56_">
			<path id="XMLID_61_" d="M425.2,127.3c-2.4,0.1-5.2-1.2-7.3,0.3c-1.7,1.2-2.1,3.8-0.8,5.4c1.4,1.8,3.8,2.2,5.9,2.8
				c1.4,0.4,4.8,2.4,2,3.5c-1.1,0.4-3.5,0.9-4.5,0.1c-1.1-0.9-2.7,0.7-1.6,1.6c3.1,2.6,12.4,0,8.7-4.8c-1.8-2.3-4.7-2.4-7.2-3.5
				c-0.8-0.4-1.8-0.9-1.9-1.9c-0.1-1.3,1.1-1.7,2.1-1.8c1.5,0,3,0.5,4.6,0.4C426.6,129.5,426.6,127.2,425.2,127.3L425.2,127.3z"/>
		</g>
	</g>
	<g id="XMLID_27_">
		<g id="XMLID_47_">
			<path id="XMLID_53_" d="M258.4,136.9c6.6-0.1,13.1-1.2,19.6-1.2c1.4,0,1.5-2.3,0-2.2c-6.6,0.1-13.1,1.2-19.6,1.2
				C257,134.7,257,136.9,258.4,136.9L258.4,136.9z"/>
		</g>
	</g>
	<g id="XMLID_2_">
		<g id="XMLID_54_">
			<path id="XMLID_170_" d="M245,102.4c2.2,0,4.4-0.2,6.6-0.2c1.8,0,4.4,0.7,6.1,0.2c1.5-0.4,0.2,0.8,0.1-0.7c0,0.5,0,1.4-0.1,1.8
				c-0.5,2.2,0,5.2,0,7.5c0,11.1,0,22.3,0,33.4c0,8.3-0.4,16.7,0.1,25c0.1,1.3,0.3,2.6,0.2,3.9c-0.1,2.2-0.3,2.3-2.4,2.4
				c-3.5,0.2-7.1,0.4-10.6,0.4c-1.4,0-1.5,2.3,0,2.2c3.5,0,7.1-0.1,10.6-0.4c1.7-0.1,3.3,0.1,4.2-1.4c1-1.6,0.4-5,0.2-6.8
				c-0.2-3.2-0.2-6.3-0.2-9.5c0-11.1,0-22.2,0-33.2c0-5.7,0-11.4,0-17.1c0-2.4,1.1-7.3-0.1-9.5c-0.2-0.3-0.6-0.6-1-0.6
				c-4.6,0.2-9.3-0.1-13.9,0C243.6,100.2,243.6,102.4,245,102.4L245,102.4z"/>
		</g>
	</g>
</g>
</svg>
