<?xml version="1.0" encoding="utf-8"?>
<!-- Generator: Adobe Illustrator 19.0.0, SVG Export Plug-In . SVG Version: 6.00 Build 0)  -->
<svg version="1.1" xmlns="http://www.w3.org/2000/svg" xmlns:xlink="http://www.w3.org/1999/xlink" x="0px" y="0px"
	 viewBox="0 0 400 175.5" style="enable-background:new 0 0 400 175.5;" xml:space="preserve">
<style type="text/css">
	.st0{fill:#C1E0EB;}
	.st1{fill:#8FCCE3;}
	.st2{fill:none;}
	.st3{font-family:'HelveticaNeue-Italic';}
	.st4{font-size:16px;}
	.st5{fill:#FDECB8;}
	.st6{fill:#F4B665;}
</style>
<g id="Layer_1">
	<rect id="XMLID_1_" x="0" y="88.7" class="st0" width="182.6" height="35.2"/>
	<rect id="XMLID_17_" x="0" y="126.6" class="st1" width="182.6" height="35.2"/>
</g>
<g id="Layer_2">
	<rect id="XMLID_232_" x="0" y="137.3" class="st2" width="182.6" height="13.7"/>
	<text id="XMLID_231_" transform="matrix(1 0 0 1 41.4921 148.7694)" class="st3 st4">Rails backend</text>
	<rect id="XMLID_230_" x="0" y="99.4" class="st2" width="182.6" height="13.7"/>
	<text id="XMLID_229_" transform="matrix(1 0 0 1 23.7084 110.8636)" class="st3 st4">Angular.js frontend</text>
	<rect id="XMLID_228_" x="0" y="50.8" class="st5" width="182.6" height="35.2"/>
	<rect id="XMLID_227_" x="0" y="61.6" class="st2" width="182.6" height="13.7"/>
	<text id="XMLID_226_" transform="matrix(1 0 0 1 50.6918 73.0187)" class="st3 st4">HTML/CSS</text>
	<rect id="XMLID_225_" x="0" y="13" class="st6" width="182.6" height="35.2"/>
	<rect id="XMLID_224_" x="0" y="23.7" class="st2" width="182.6" height="13.7"/>
	<text id="XMLID_223_" transform="matrix(1 0 0 1 33.3481 35.1585)" class="st3 st4">Graphics design</text>
</g>
<g id="annotation">
	<g id="XMLID_28_">
		<g id="XMLID_171_">
			<path id="XMLID_175_" d="M244.9,64c0,8.2,0,16.5,0,24.7c0,1.4,2.2,1.5,2.2,0c0-8.2,0-16.5,0-24.7C247.2,62.6,244.9,62.6,244.9,64
				L244.9,64z"/>
		</g>
	</g>
	<g id="XMLID_29_">
		<g id="XMLID_121_">
			<path id="XMLID_168_" d="M257.8,75.5c0.1,4.1,0.7,8.2,0.9,12.3c0.1,1.4,2.3,1.5,2.2,0c0-3-0.8-10.1,2.4-11.7
				c5.2-2.7,4.4,10.2,4.4,12.6c0.7-0.1,1.5-0.2,2.2-0.3c-0.4-2-0.8-4.1-0.5-6.1c0.3-2.4,2.5-6.6,5.4-4.5c2.4,1.6,1.3,6.9,1.3,9.4
				c0,1.4,2.2,1.4,2.2,0c0.1-3.9,1.2-12.1-4.7-12.1c-7.2,0-6.9,9-5.9,13.9c0.3,1.3,2.2,1,2.2-0.3c0-4.3,1.2-15.9-6.1-15.2
				c-5.8,0.6-5.2,10.2-5.2,14.3c0.8,0,1.5,0,2.2,0c-0.2-4.1-0.8-8.2-0.9-12.3C260,74,257.8,74,257.8,75.5L257.8,75.5z"/>
		</g>
	</g>
	<g id="XMLID_30_">
		<g id="XMLID_114_">
			<path id="XMLID_119_" d="M285.9,86.6c-3.8-0.8-4.4-6.9-1.6-9.2c2.5-2.1,4.9,0.4,5.6,2.9c1.1,3.5-0.3,6.7-4.3,6.3
				c-1.4-0.1-1.4,2.1,0,2.2c10.5,1,7.8-16.5-0.6-14.2c-6.4,1.7-6.1,12.8,0.3,14.2C286.8,89.1,287.4,86.9,285.9,86.6L285.9,86.6z"/>
		</g>
	</g>
	<g id="XMLID_31_">
		<g id="XMLID_107_">
			<path id="XMLID_112_" d="M289.9,74.3c0,2.5-0.1,4.9,0.3,7.4c0.3,2.2,1.2,4.2,1.5,6.4c0.2,1.4,2.4,1.4,2.2,0c-0.2-2-1-3.8-1.4-5.7
				c-0.6-2.7-0.4-5.4-0.4-8.1C292.2,72.9,289.9,72.9,289.9,74.3L289.9,74.3z"/>
		</g>
	</g>
	<g id="XMLID_32_">
		<g id="XMLID_101_">
			<path id="XMLID_105_" d="M305.5,60.3c0,7.2-0.8,14.8,0.3,22c0.4,2.5,1.8,4.8-1.6,5.1c-2.2,0.2-3.9-1.5-4.9-3.3
				c-0.6-0.9-0.9-1.9-0.9-3c0.5-3.8,2.5-4.7,5.9-2.5c0.8,1.2,2.7,0.1,1.9-1.1c-2-3.2-6.7-3.3-9-0.2c-2.5,3.5-0.4,9.4,3.1,11.5
				c2.6,1.6,7.8,2,8.4-1.8c0.6-3.3-1-7.6-1.1-11c-0.1-5.2,0.1-10.4,0.1-15.6C307.8,58.8,305.5,58.8,305.5,60.3L305.5,60.3z"/>
		</g>
	</g>
	<g id="XMLID_34_">
		<g id="XMLID_95_">
			<path id="XMLID_99_" d="M312.7,84.2c3.6,0,8.4-0.8,9-5.1c0.6-4-4.4-4.2-7-3.1c-3.9,1.7-3.7,7.1-1.6,10.2
				c1.9,2.9,7.8,4.5,10.4,1.7c1-1.1-0.6-2.7-1.6-1.6c-1.7,1.9-6,0.3-7.1-1.6c-1.1-1.9-1.6-5.5,0.7-6.6c1.4-0.7,5.2-1,3.7,1.6
				c-1.2,2.1-4.4,2.2-6.5,2.2C311.3,82,311.3,84.2,312.7,84.2L312.7,84.2z"/>
		</g>
	</g>
	<g id="XMLID_36_">
		<g id="XMLID_89_">
			<path id="XMLID_93_" d="M337,60.5c0,4.9,0.1,9.8,0,14.8c-0.1,3.3-0.6,7,0.8,10.1c2.5,5.5,7.6,4.5,9.9-0.3
				c0.6-1.3-1.3-2.4-1.9-1.1c-0.7,2.4-2.6,2.7-5.7,0.9c-0.7-1.5-1-3.1-0.9-4.7c-0.1-1.8,0.1-3.7,0.2-5.5c0.1-4.7,0-9.4,0-14.1
				C339.2,59.1,337,59.1,337,60.5L337,60.5z"/>
		</g>
	</g>
	<g id="XMLID_43_">
		<g id="XMLID_83_">
			<path id="XMLID_87_" d="M332,76.3c3.6,0,7.2-0.5,10.6-1.7c1.4-0.5,0.8-2.7-0.6-2.2c-3.2,1.1-6.6,1.6-10,1.6
				C330.5,74.1,330.5,76.3,332,76.3L332,76.3z"/>
		</g>
	</g>
	<g id="XMLID_50_">
		<g id="XMLID_73_">
			<path id="XMLID_77_" d="M348.7,59.7c0,4.7,0,9.5,0.3,14.2c0.3,4.8,1.4,9.5,1.5,14.3c0.8,0,1.5,0,2.2,0c-0.2-2.5-1-8.5,0.8-10.5
				c3.2-3.6,3.8,3.8,3.8,5.4c0,1.8-0.1,3.6-0.1,5.4c0,1.4,2.2,1.5,2.2,0c0-3.4,1.4-15.2-4.9-14.5c-5.4,0.6-4.5,10.7-4.2,14.3
				c0.1,1.4,2.3,1.5,2.2,0c-0.1-4.8-1.2-9.5-1.5-14.3c-0.3-4.7-0.3-9.5-0.3-14.2C351,58.3,348.7,58.3,348.7,59.7L348.7,59.7z"/>
		</g>
	</g>
	<g id="XMLID_57_">
		<g id="XMLID_66_">
			<path id="XMLID_70_" d="M363.2,74.9c0,4.7-0.2,9.3-0.2,14c0,1.4,2.2,1.4,2.2,0c0-4.7,0.2-9.3,0.2-14
				C365.5,73.4,363.2,73.4,363.2,74.9L363.2,74.9z"/>
		</g>
	</g>
	<g id="XMLID_64_">
		<g id="XMLID_59_">
			<path id="XMLID_63_" d="M365.2,69c0-0.2,0-0.3,0-0.5c0-1.4-2.2-1.5-2.2,0c0,0.2,0,0.3,0,0.5C363,70.5,365.2,70.5,365.2,69
				L365.2,69z"/>
		</g>
	</g>
	<g id="XMLID_71_">
		<g id="XMLID_51_">
			<path id="XMLID_56_" d="M377.1,75c-2.4,0.1-5.2-1.2-7.3,0.3c-1.7,1.2-2.1,3.8-0.8,5.4c1.4,1.8,3.8,2.2,5.9,2.8
				c1.4,0.4,4.8,2.4,2,3.5c-1.1,0.4-3.5,0.9-4.5,0.1c-1.1-0.9-2.7,0.7-1.6,1.6c3.1,2.6,12.4,0,8.7-4.8c-1.8-2.3-4.7-2.4-7.2-3.5
				c-0.8-0.4-1.8-0.9-1.9-1.9c-0.1-1.3,1.1-1.7,2.1-1.8c1.5,0,3,0.5,4.6,0.4C378.5,77.2,378.5,74.9,377.1,75L377.1,75z"/>
		</g>
	</g>
	<g id="XMLID_2_">
		<g id="XMLID_116_">
			<path id="XMLID_170_" d="M193.9,18.1c4,0.1,8.5-1.4,12.4-0.9c3,0.4,3.1,0.5,3.4,4.4c0.1,1.7,0,3.5,0,5.2
				c-0.4,7.6-0.4,15.2-0.7,22.8c-0.5,16.2-0.4,32.4-0.2,48.6c0.2,21.2-0.1,42.4,0.5,63.6c0.4-0.4,0.8-0.8,1.1-1.1
				c-5.9,0.7-11.8,1.2-17.7,0.9c-1.4-0.1-1.4,2.2,0,2.2c5.9,0.3,11.9-0.2,17.7-0.9c0.6-0.1,1.1-0.5,1.1-1.1
				c-0.6-19.3-0.3-38.5-0.4-57.8c-0.1-15.3-0.6-30.6-0.1-45.9c0.2-7.3,0.6-14.5,0.6-21.8c0.1-6.9,1.1-13.7-0.6-20.5
				c-0.1-0.5-0.6-0.8-1.1-0.8c-5.3-0.2-10.6,1-15.9,0.9C192.4,15.8,192.4,18,193.9,18.1L193.9,18.1z"/>
		</g>
	</g>
	<g id="XMLID_27_">
		<g id="XMLID_44_">
			<path id="XMLID_48_" d="M210.3,84.6c8.2-0.1,16.4-1.3,24.6-1.4c1.4,0,1.5-2.3,0-2.2c-8.2,0.1-16.4,1.3-24.6,1.4
				C208.9,82.4,208.9,84.6,210.3,84.6L210.3,84.6z"/>
		</g>
	</g>
</g>
</svg>
